<?xml version="1.0" standalone="no"?>
<!DOCTYPE svg PUBLIC "-//W3C//DTD SVG 20010904//EN"
 "http://www.w3.org/TR/2001/REC-SVG-20010904/DTD/svg10.dtd">
<svg version="1.0" xmlns="http://www.w3.org/2000/svg"
 width="800.000000pt" height="800.000000pt" viewBox="0 0 400.000000 400.000000"
 preserveAspectRatio="xMidYMid meet">

<g transform="translate(0.000000,400.000000) scale(0.100000,-0.100000)"
fill="#000000" stroke="none">
<path d="M1928 3572 c-44 -49 -50 -94 -17 -136 l20 -26 -21 0 c-45 0 -86 -42
-74 -74 8 -20 24 -21 24 -2 0 24 27 26 54 5 44 -34 34 -118 -19 -171 -38 -38
-98 -53 -149 -38 -53 16 -96 60 -96 99 0 35 29 58 49 38 10 -9 12 -7 9 13 -3
23 -7 25 -48 25 -44 -1 -45 0 -46 32 -1 42 -17 59 -76 76 l-46 14 -7 -54 c-6
-49 -4 -58 16 -79 12 -13 28 -24 36 -24 18 0 16 -7 -8 -31 -12 -12 -19 -30
-17 -46 3 -28 28 -45 28 -19 0 8 9 20 20 26 31 17 56 -6 102 -95 23 -44 45
-83 51 -86 5 -4 5 -9 -2 -13 -15 -10 -13 -47 4 -70 24 -31 18 -40 -35 -59 -27
-10 -50 -22 -50 -27 0 -13 -1 -13 85 15 41 14 114 29 162 33 l88 7 3 49 3 49
-73 -6 c-41 -4 -93 -13 -117 -22 -51 -18 -51 -18 -51 -6 0 16 86 43 161 49
l74 7 3 203 c2 193 1 204 -19 231 l-22 29 22 31 c15 20 21 42 19 63 l-3 31
-37 -41z m-354 -224 c13 -22 -3 -41 -27 -32 -23 8 -23 57 -1 52 9 -2 22 -11
28 -20z"/>
<path d="M1803 2846 c-141 -34 -257 -127 -315 -253 -57 -120 -49 -275 19 -391
61 -103 176 -191 402 -306 214 -109 301 -190 317 -293 14 -92 -44 -184 -133
-211 -98 -29 -248 -4 -345 57 -111 70 -219 215 -248 334 -9 35 -17 47 -31 47
-18 0 -19 -11 -19 -219 l0 -219 128 -47 c198 -72 255 -86 382 -92 86 -4 132
-1 184 11 249 59 416 290 378 522 -30 179 -148 299 -442 448 -226 115 -296
166 -331 241 -32 69 -22 134 29 188 54 57 134 77 236 58 90 -17 160 -54 232
-122 66 -65 134 -178 134 -225 0 -19 5 -24 25 -24 l25 0 0 184 0 183 -111 52
c-148 70 -235 91 -363 90 -56 0 -125 -6 -153 -13z"/>
<path d="M1670 1039 c-25 -10 -37 -18 -27 -18 29 -1 37 -45 37 -200 0 -149 -5
-172 -40 -184 -8 -3 19 -5 60 -5 41 0 67 2 57 5 -25 7 -37 44 -37 119 0 77 9
97 50 114 27 11 33 10 50 -5 17 -16 20 -31 20 -117 0 -93 -1 -99 -22 -108 -17
-6 -5 -9 47 -9 50 0 64 3 48 9 -20 8 -21 17 -25 118 -3 121 -17 152 -66 152
-25 0 -82 -29 -82 -42 0 -4 -4 -8 -10 -8 -5 0 -11 44 -12 99 l-3 99 -45 -19z"/>
<path d="M2001 1046 c-17 -20 -2 -48 23 -44 24 3 34 37 14 49 -18 12 -24 11
-37 -5z"/>
<path d="M2992 1039 c-62 -18 -92 -107 -53 -158 10 -14 56 -47 102 -75 59 -36
85 -59 92 -79 13 -39 -12 -74 -60 -83 -53 -10 -102 18 -130 76 l-22 45 -1 -73
c0 -69 1 -72 20 -60 15 10 26 10 53 0 110 -40 211 24 193 121 -7 39 -31 62
-101 102 -88 49 -115 73 -115 104 0 37 28 61 73 61 44 0 86 -33 103 -81 12
-32 13 -30 13 40 1 62 -1 72 -11 58 -12 -15 -17 -15 -53 -2 -46 16 -58 17
-103 4z"/>
<path d="M800 1027 l25 -13 0 -184 0 -184 -25 -7 c-14 -4 14 -7 65 -7 50 0 81
3 70 5 -40 10 -45 23 -45 109 l0 84 48 0 c55 0 67 -7 81 -40 8 -20 10 -9 10
50 0 53 -3 69 -9 53 -12 -29 -40 -43 -89 -43 l-41 0 0 85 0 85 44 0 c76 0 107
-11 127 -44 l19 -31 0 48 0 47 -152 0 c-130 0 -149 -2 -128 -13z"/>
<path d="M1165 885 c-27 -26 -31 -45 -14 -62 16 -16 39 -4 39 21 0 32 15 49
45 49 32 0 41 -9 49 -48 6 -29 4 -31 -62 -62 -77 -36 -101 -67 -86 -110 5 -15
22 -34 37 -43 25 -14 30 -13 67 8 46 26 50 27 50 8 0 -37 76 -16 88 25 4 11 2
12 -9 2 -7 -7 -16 -13 -19 -13 -4 0 -10 48 -13 108 -7 127 -18 142 -99 142
-39 0 -54 -5 -73 -25z m125 -145 c0 -42 -4 -52 -24 -66 -35 -22 -69 -15 -80
18 -11 32 10 62 59 84 44 19 45 19 45 -36z"/>
<path d="M1448 898 c-9 -7 -21 -24 -26 -38 -15 -44 0 -71 62 -109 33 -20 64
-44 70 -53 24 -39 -36 -73 -84 -48 -12 6 -28 26 -35 43 l-14 32 -1 -47 0 -47
54 -6 c84 -11 126 18 126 85 0 32 -26 56 -96 90 -59 29 -74 84 -24 90 44 6 60
-1 79 -37 l20 -38 1 45 0 45 -58 3 c-35 2 -63 -2 -74 -10z"/>
<path d="M1985 892 c-38 -15 -39 -16 -15 -22 24 -6 25 -9 28 -95 3 -105 -2
-132 -26 -138 -9 -3 15 -5 53 -5 51 -1 64 2 48 8 -22 9 -23 14 -23 140 0 143
2 140 -65 112z"/>
<path d="M2194 891 c-87 -53 -84 -209 5 -256 93 -47 191 22 191 135 0 111
-105 176 -196 121z m105 -20 c46 -46 53 -179 11 -213 -30 -24 -56 -23 -85 6
-46 47 -57 165 -18 208 21 24 68 23 92 -1z"/>
<path d="M2450 890 c-28 -16 -31 -19 -14 -20 27 0 34 -23 34 -122 0 -65 -3
-81 -20 -98 l-20 -20 68 1 c47 0 61 3 46 9 -25 10 -34 46 -34 131 0 46 5 64
20 79 11 11 24 20 29 20 5 0 16 3 24 6 8 3 22 -2 31 -11 13 -13 16 -37 16
-116 0 -94 -1 -100 -22 -109 -17 -6 -5 -9 47 -9 52 0 64 3 48 9 -22 9 -23 15
-23 113 0 90 -3 108 -21 131 -26 34 -68 34 -107 1 -17 -14 -33 -25 -36 -25 -3
0 -6 11 -6 25 0 30 -13 31 -60 5z"/>
</g>
</svg>
